# xmcd CD database file
#
# Track frame offsets:
#	150
#	13867
#	31970
#	45932
#	63270
#	74815
#	95207
#	111135
#	127052
#	146685
#	168320
#	184412
#	206382
#	223820
#	236515
#	250362
#	265582
#	280567
#	302030
#
# Disc length: 4256 seconds
#
# Revision: 0
# Processed by: cddbd v1.5.2PL0 Copyright (c) Steve Scherf et al.
# Submitted via: CDex 1.51
#
DISCID=1f109e13
DTITLE=Willie Nelson - The Essential Willie Nelson - Disc 2
DYEAR=2003
DGENRE=Country
TTITLE0=Stay a Little Longer (Live)
TTITLE1=Heartbreak Hotel
TTITLE2=Help Me Make It through the Night
TTITLE3=My Heroes Have Always Been Cowboys
TTITLE4=Faded Love
TTITLE5=On the Road Again
TTITLE6=Angel Flying Too Close to the Ground
TTITLE7=Always on My Mind
TTITLE8=Let It Be Me
TTITLE9=Last Thing I Needed First Thing This Morning
TTITLE10=Pancho and Lefty
TTITLE11=To All the Girls I've Loved Before
TTITLE12=City of New Orleans
TTITLE13=Seven Spanish Angels
TTITLE14=Forgiving You Was Easy
TTITLE15=Highwayman
TTITLE16=Living in the Promised Land
TTITLE17=Nothing I Can Do About It Now
TTITLE18=Graceland
EXTD=YEAR: 2003
EXTT0=
EXTT1=
EXTT2=
EXTT3=
EXTT4=
EXTT5=
EXTT6=
EXTT7=
EXTT8=
EXTT9=
EXTT10=
EXTT11=
EXTT12=
EXTT13=
EXTT14=
EXTT15=
EXTT16=
EXTT17=
EXTT18=
PLAYORDER=
